<?xml version="1.0" encoding="UTF-8" standalone="no"?>
<!-- Created with Inkscape (http://www.inkscape.org/) -->

<svg
   version="1.1"
   id="svg2"
   xml:space="preserve"
   width="363.01334"
   height="764.74664"
   viewBox="0 0 363.01334 764.74664"
   sodipodi:docname="TOG vertical logo editable file.eps"
   xmlns:inkscape="http://www.inkscape.org/namespaces/inkscape"
   xmlns:sodipodi="http://sodipodi.sourceforge.net/DTD/sodipodi-0.dtd"
   xmlns="http://www.w3.org/2000/svg"
   xmlns:svg="http://www.w3.org/2000/svg"><defs
     id="defs6" /><sodipodi:namedview
     id="namedview4"
     pagecolor="#ffffff"
     bordercolor="#666666"
     borderopacity="1.0"
     inkscape:pageshadow="2"
     inkscape:pageopacity="0.0"
     inkscape:pagecheckerboard="0" /><g
     id="g8"
     inkscape:groupmode="layer"
     inkscape:label="ink_ext_XXXXXX"
     transform="matrix(1.3333333,0,0,-1.3333333,0,764.74667)"><g
       id="g10"
       transform="scale(0.1)"><path
         d="M 298.512,986.313 V 4534.59 c 0,15.11 12.254,27.37 27.367,27.37 H 910.73 c 15.11,0 27.364,12.25 27.364,27.37 v 243.77 c 0,15.11 -12.254,27.37 -27.364,27.37 H 27.3672 C 12.2539,4860.47 0,4848.21 0,4833.1 V 687.801 C 0,672.691 12.2539,660.43 27.3672,660.43 H 492.813 c 15.117,0 27.367,12.261 27.367,27.371 V 931.57 c 0,15.121 -12.25,27.379 -27.367,27.379 H 325.879 c -15.113,0 -27.367,12.242 -27.367,27.364"
         style="fill:#dfe3e8;fill-opacity:1;fill-rule:nonzero;stroke:none"
         id="path12" /><path
         d="m 2697.35,4860.47 h -898.22 c -13.92,0 -25.2,-11.28 -25.2,-25.19 v -248.13 c 0,-13.91 11.28,-25.19 25.2,-25.19 h 599.72 c 13.91,0 25.19,-11.28 25.19,-25.2 V 984.141 c 0,-13.911 -11.28,-25.192 -25.19,-25.192 h -181.81 c -13.92,0 -25.2,-11.277 -25.2,-25.199 V 685.629 c 0,-13.918 11.28,-25.199 25.2,-25.199 h 480.31 c 13.92,0 25.2,11.281 25.2,25.199 V 4835.28 c 0,13.91 -11.28,25.19 -25.2,25.19"
         style="fill:#dfe3e8;fill-opacity:1;fill-rule:nonzero;stroke:none"
         id="path14" /><path
         d="M 1159.34,5347.13 H 720.703 c -10.367,0 -21.328,4.37 -32.871,13.15 -11.559,8.76 -17.328,20.7 -17.328,35.85 v 290.43 c 0,15.94 5.769,28.1 17.328,36.46 11.543,8.37 22.504,12.55 32.871,12.55 h 632.267 633.47 c 10.36,0 21.31,-4.18 32.86,-12.55 11.55,-8.36 17.35,-20.52 17.35,-36.46 v -290.43 c 0,-15.15 -5.8,-27.09 -17.35,-35.85 -11.55,-8.78 -22.5,-13.15 -32.86,-13.15 H 1547.79 V 3990.56 c 0,-10.35 -4.39,-21.31 -13.15,-32.87 -8.77,-11.55 -20.72,-17.33 -35.85,-17.33 h -290.44 c -15.95,0 -28.09,5.78 -36.46,17.33 -8.37,11.56 -12.55,22.52 -12.55,32.87 v 1356.57"
         style="fill:#dfe3e8;fill-opacity:1;fill-rule:nonzero;stroke:none"
         id="path16" /><path
         d="M 1672.68,2358.62 V 3376.95 H 1034.44 V 2358.62 Z m 388.45,1356.57 V 2020.38 c 0,-10.35 -4.37,-21.31 -13.14,-32.85 -8.78,-11.55 -20.74,-17.35 -35.86,-17.35 h -240.24 c -95.61,0 -257.77,0 -486.45,0 -228.69,0 -389.639,0 -482.87,0 H 695.004 c -15.945,0 -28.086,5.8 -36.453,17.35 -8.367,11.54 -12.551,22.5 -12.551,32.85 v 1694.81 c 0,10.35 4.184,21.31 12.551,32.87 8.367,11.55 20.508,17.33 36.453,17.33 h 231.871 c 95.615,0 258.565,0 488.845,0 230.27,0 393.22,0 488.84,0 h 107.57 c 15.12,0 27.08,-5.78 35.86,-17.33 8.77,-11.56 13.14,-22.52 13.14,-32.87"
         style="fill:#dfe3e8;fill-opacity:1;fill-rule:nonzero;stroke:none"
         id="path18" /><path
         d="M 1094.21,1406.77 V 388.449 h 518.72 v 236.653 h -139.84 c -10.37,0 -21.32,4.371 -32.87,13.14 -11.56,8.778 -17.33,20.738 -17.33,35.86 v 290.437 c 0,15.953 5.77,28.102 17.33,36.471 11.55,8.37 22.5,12.54 32.87,12.54 h 371.71 107.57 c 15.13,0 27.08,-5.78 35.85,-17.32 8.78,-11.57 13.16,-22.539 13.16,-32.89 V 420.711 50.2109 c 0,-10.3593 -4.38,-21.3203 -13.16,-32.8711 C 1979.45,5.80078 1967.5,0 1952.37,0 H 1844.8 995 754.766 c -15.95,0 -28.086,5.80078 -36.457,17.3398 -8.364,11.5508 -12.547,22.5118 -12.547,32.8711 V 1745.01 c 0,10.35 4.183,21.31 12.547,32.89 8.371,11.54 20.507,17.32 36.457,17.32 h 107.566 858.168 231.87 c 15.13,0 27.08,-5.78 35.85,-17.32 8.78,-11.58 13.16,-22.54 13.16,-32.89 v -550.99 c 0,-10.35 -4.38,-21.3 -13.16,-32.86 -8.77,-11.57 -20.72,-17.34 -35.85,-17.34 h -290.44 c -15.94,0 -28.08,5.77 -36.45,17.34 -8.37,11.56 -12.55,22.51 -12.55,32.86 v 212.75 h -518.72"
         style="fill:#dfe3e8;fill-opacity:1;fill-rule:nonzero;stroke:none"
         id="path20" /></g></g></svg>
